<svg id="Layer_1" data-name="Layer 1" xmlns="http://www.w3.org/2000/svg" viewBox="0 0 310.81 106.1"><defs><style>.cls-1{fill:#f90;}.cls-1,.cls-2{fill-rule:evenodd;}</style></defs><title>macrabz</title><path class="cls-1" d="M292.29,87.22c-24.31,13.73-59.55,21-89.89,21-42.53,0-80.83-12-109.81-32.06-2.28-1.57-.25-3.72,2.49-2.5C126.35,87.61,165,96,205,96a277.52,277.52,0,0,0,83.81-13.13C292.87,81.54,296.32,84.94,292.29,87.22Z" transform="translate(-2.41 -2.14)"/><path class="cls-1" d="M300.46,78.38c-2.38-3-15.73-1.44-21.73-.72-1.82.22-2.1-1.37-.46-2.52,10.65-7.48,28.1-5.32,30.13-2.82s-0.54,20-10.52,28.37c-1.54,1.28-3,.6-2.31-1.1C297.81,94,302.84,81.43,300.46,78.38Z" transform="translate(-2.41 -2.14)"/><path class="cls-2" d="M280.9,29V22.7a1.56,1.56,0,0,1,1.6-1.6h28.24a1.57,1.57,0,0,1,1.63,1.59v5.4c0,0.91-.77,2.09-2.13,4L295.61,53c5.43-.13,11.17.69,16.11,3.46a2.88,2.88,0,0,1,1.5,2.46V65.6A1.51,1.51,0,0,1,311.14,67a32.53,32.53,0,0,0-29.84.06c-1,.52-2-0.53-2-1.46V59.24a7.6,7.6,0,0,1,1.05-4.33l16.95-24.32H282.53A1.57,1.57,0,0,1,280.9,29Z" transform="translate(-2.41 -2.14)"/><path d="M64.37,67a1.92,1.92,0,0,1-1.3.27H52.45A2.24,2.24,0,0,1,51.19,67a2.33,2.33,0,0,1-.27-1.48V36.66a9.1,9.1,0,0,0-.72-4.18,2.55,2.55,0,0,0-2.43-1.3,6.94,6.94,0,0,0-3.15.72,16.25,16.25,0,0,0-3.42,2.52V65.52A3.35,3.35,0,0,1,41,67a1.54,1.54,0,0,1-1.17.27H29.34A1.92,1.92,0,0,1,28,67a2.73,2.73,0,0,1-.22-1.44V37.11a11.14,11.14,0,0,0-.63-4.5,2.54,2.54,0,0,0-2.52-1.26,7,7,0,0,0-3.1.72,18.47,18.47,0,0,0-3.46,2.34V65.52A2.75,2.75,0,0,1,17.88,67a2.12,2.12,0,0,1-1.39.27H6A1.92,1.92,0,0,1,4.66,67a2.73,2.73,0,0,1-.22-1.44V35.94A31.92,31.92,0,0,0,4,30.14a30.23,30.23,0,0,0-1.26-4.63,3.27,3.27,0,0,1-.31-1.39,1,1,0,0,1,.94-0.67l9.44-2.16A5.07,5.07,0,0,1,14,21.1a1.67,1.67,0,0,1,1.17.9q0.45,0.72.94,1.71a14.62,14.62,0,0,1,.94,2.7,25.52,25.52,0,0,1,6.07-3.87,16.31,16.31,0,0,1,6.52-1.26,12.41,12.41,0,0,1,6.16,1.48,9,9,0,0,1,3.91,4.36,26.82,26.82,0,0,1,6.43-4.41A16.17,16.17,0,0,1,53,21.28a13,13,0,0,1,5.84,1.17,8.6,8.6,0,0,1,3.6,3.24,13.23,13.23,0,0,1,1.71,4.63,37.57,37.57,0,0,1,.45,6.34V65.52A2.75,2.75,0,0,1,64.37,67Z" transform="translate(-2.41 -2.14)"/><path d="M110.81,63.81a2.39,2.39,0,0,1,.27,1.08,0.74,0.74,0,0,1-.72.63L102,68.31a4.12,4.12,0,0,1-1.35.36,1.68,1.68,0,0,1-1.39-1.12,30,30,0,0,1-1.48-3.73,18.32,18.32,0,0,1-5.26,3.55,15,15,0,0,1-5.89,1.12q-6.74,0-10.61-3.73T72.14,54.55a14.33,14.33,0,0,1,2-7.91,13.62,13.62,0,0,1,5.75-4.86,25.38,25.38,0,0,1,6.74-2.16A49.75,49.75,0,0,1,95.07,39h0.72V36.39a5.27,5.27,0,0,0-1-3.69q-1-1.08-4.54-1.08a18.29,18.29,0,0,0-4.72.72,59.41,59.41,0,0,0-5.89,2,1.75,1.75,0,0,1-1,.18,1.12,1.12,0,0,1-.67-0.81l-2.52-7.28a1.28,1.28,0,0,1,0-1.44,6.9,6.9,0,0,1,1.66-.9A28.63,28.63,0,0,1,84.06,22a46.25,46.25,0,0,1,7.87-.67,22.24,22.24,0,0,1,10.52,2.25A11,11,0,0,1,108,30.37a9.6,9.6,0,0,1,.54,2.56q0.09,1.31.09,3.19V53.56a22.5,22.5,0,0,0,.63,6A35.28,35.28,0,0,0,110.81,63.81Zm-15-16.37H95q-5.66,0-8,1.66a5.5,5.5,0,0,0-2.38,4.81A5.56,5.56,0,0,0,86,58a4.77,4.77,0,0,0,3.55,1.53q3.24,0,6.2-3.15v-8.9Z" transform="translate(-2.41 -2.14)"/><path d="M149.38,34.77a1,1,0,0,1-.81.72,2,2,0,0,1-1.08-.45,28.92,28.92,0,0,0-4.27-2.43,9.85,9.85,0,0,0-4-.81,6.88,6.88,0,0,0-5.89,3.1q-2.2,3.1-2.2,10.38,0,7,2.2,9.94a7.09,7.09,0,0,0,6,2.92,10.3,10.3,0,0,0,3.87-.72,20.82,20.82,0,0,0,3.6-1.89A2.18,2.18,0,0,1,148,55a1.45,1.45,0,0,1,.9.94l2.79,6.11a1.42,1.42,0,0,1,.14,1.39,8.26,8.26,0,0,1-1.75,1.57,13.26,13.26,0,0,1-2.61,1.48,25.85,25.85,0,0,1-3.24,1.17,28.13,28.13,0,0,1-3.42.76,20.29,20.29,0,0,1-3.15.27q-10.07,0-15.24-6.11t-5.17-16.81a32.45,32.45,0,0,1,1.48-10.12A22,22,0,0,1,123,28,18.93,18.93,0,0,1,129.87,23a23.1,23.1,0,0,1,9.26-1.75,22.31,22.31,0,0,1,6.92,1.08A19.92,19.92,0,0,1,152,25.42a1.84,1.84,0,0,1,.63,2.52Z" transform="translate(-2.41 -2.14)"/><path d="M188.76,23.71a0.91,0.91,0,0,1,.27,1q-0.18.54-.36,1l-3,8a1,1,0,0,1-1.44.72,17,17,0,0,0-1.8-.85,6.44,6.44,0,0,0-2.43-.4,5.35,5.35,0,0,0-2.7.72,14.61,14.61,0,0,0-3.15,2.79V65.79a2,2,0,0,1-.22,1.26,2.4,2.4,0,0,1-1.21.18H161.61a2.11,2.11,0,0,1-1.17-.18,2.38,2.38,0,0,1-.18-1.26V38.19a27.65,27.65,0,0,0-.81-7,49.87,49.87,0,0,0-1.53-5,9.55,9.55,0,0,1-.4-1.35q-0.14-.63.85-0.9l8.72-2.34a4.3,4.3,0,0,1,1.26-.27q1,0,1.89,1.66a22.9,22.9,0,0,1,1.71,4.54A5.25,5.25,0,0,0,172.4,27a1.55,1.55,0,0,1,.45-0.45,22.87,22.87,0,0,1,4.68-4,9.74,9.74,0,0,1,5.13-1.3,9.61,9.61,0,0,1,3.51.63A6.38,6.38,0,0,1,188.76,23.71Z" transform="translate(-2.41 -2.14)"/><path d="M225.72,63.81a2.39,2.39,0,0,1,.27,1.08,0.74,0.74,0,0,1-.72.63l-8.36,2.79a4.12,4.12,0,0,1-1.35.36,1.68,1.68,0,0,1-1.39-1.12,30,30,0,0,1-1.48-3.73,18.32,18.32,0,0,1-5.26,3.55,15,15,0,0,1-5.89,1.12q-6.74,0-10.61-3.73t-3.87-10.21a14.33,14.33,0,0,1,2-7.91,13.62,13.62,0,0,1,5.75-4.86,25.38,25.38,0,0,1,6.74-2.16A49.75,49.75,0,0,1,210,39h0.72V36.39a5.27,5.27,0,0,0-1-3.69q-1-1.08-4.54-1.08a18.29,18.29,0,0,0-4.72.72,59.41,59.41,0,0,0-5.89,2,1.75,1.75,0,0,1-1,.18,1.12,1.12,0,0,1-.67-0.81l-2.52-7.28a1.28,1.28,0,0,1,0-1.44,6.9,6.9,0,0,1,1.66-.9A28.63,28.63,0,0,1,199,22a46.25,46.25,0,0,1,7.87-.67,22.24,22.24,0,0,1,10.52,2.25,11,11,0,0,1,5.58,6.83,9.6,9.6,0,0,1,.54,2.56q0.09,1.31.09,3.19V53.56a22.5,22.5,0,0,0,.63,6A35.28,35.28,0,0,0,225.72,63.81Zm-15-16.37h-0.81q-5.66,0-8,1.66a5.5,5.5,0,0,0-2.38,4.81,5.56,5.56,0,0,0,1.48,4,4.77,4.77,0,0,0,3.55,1.53q3.24,0,6.2-3.15v-8.9Z" transform="translate(-2.41 -2.14)"/><path d="M275,43.49a40.25,40.25,0,0,1-1.21,10.65A21.26,21.26,0,0,1,269.69,62a19.27,19.27,0,0,1-6.2,5,16.86,16.86,0,0,1-7.64,1.75,11.17,11.17,0,0,1-4.54-.85,18.05,18.05,0,0,1-4.18-2.74,11.06,11.06,0,0,1-1.53,2.7,1.72,1.72,0,0,1-1.26.54,1.92,1.92,0,0,1-.45,0l-0.72-.13-8.9-1.44q-1.35-.27-0.72-1.8,0.45-1.08.76-2a17.33,17.33,0,0,0,.54-2.07q0.22-1.12.36-2.47t0.13-3.15V5.64a3.61,3.61,0,0,1,.13-1.21,1.55,1.55,0,0,1,1.12-.49l10.88-1.71a2.1,2.1,0,0,1,1.35,0,1.72,1.72,0,0,1,.36,1.39V24.52a17.7,17.7,0,0,1,9.71-3.24q8,0,12,5.93T275,43.49Zm-13.4.63q0-6.74-1.75-10T255.3,30.9a7.55,7.55,0,0,0-2.74.54,15.74,15.74,0,0,0-3.37,2v24a7.86,7.86,0,0,0,4.41,1.44q3.51,0,5.75-3.78T261.6,44.12Z" transform="translate(-2.41 -2.14)"/></svg>