<svg id="Layer_1" data-name="Layer 1" xmlns="http://www.w3.org/2000/svg" viewBox="0 0 354.43 106.1"><defs><style>.cls-1{fill:#f99106;}.cls-1,.cls-2,.cls-3{fill-rule:evenodd;}.cls-2{fill:#f90;}</style></defs><title>crabazon</title><path d="M36.92,36.33a1.07,1.07,0,0,1-.85.75,2.06,2.06,0,0,1-1.13-.47,30.3,30.3,0,0,0-4.48-2.54,10.32,10.32,0,0,0-4.19-.85,7.2,7.2,0,0,0-6.17,3.25q-2.31,3.25-2.31,10.88,0,7.35,2.31,10.41a7.43,7.43,0,0,0,6.27,3.06,10.79,10.79,0,0,0,4.05-.75,21.81,21.81,0,0,0,3.77-2,2.28,2.28,0,0,1,1.32-.52,1.52,1.52,0,0,1,.94,1L39.37,65a1.48,1.48,0,0,1,.14,1.46,8.65,8.65,0,0,1-1.84,1.65,13.9,13.9,0,0,1-2.73,1.55,27.09,27.09,0,0,1-3.39,1.23,29.48,29.48,0,0,1-3.58.8,21.26,21.26,0,0,1-3.3.28q-10.55,0-16-6.41T3.28,47.92a34,34,0,0,1,1.55-10.6,23,23,0,0,1,4.48-8.1A19.84,19.84,0,0,1,16.47,24a24.21,24.21,0,0,1,9.7-1.84,23.38,23.38,0,0,1,7.25,1.13,20.87,20.87,0,0,1,6.22,3.2,1.93,1.93,0,0,1,.66,2.64Z" transform="translate(-3.28 -2.14)"/><path d="M78.18,24.74a1,1,0,0,1,.28,1q-0.19.56-.38,1L75,35.2a1,1,0,0,1-1.51.75,17.76,17.76,0,0,0-1.88-.9A6.75,6.75,0,0,0,69,34.63a5.6,5.6,0,0,0-2.83.75,15.31,15.31,0,0,0-3.3,2.92V68.84a2.08,2.08,0,0,1-.24,1.32,2.52,2.52,0,0,1-1.27.19H49.73a2.21,2.21,0,0,1-1.22-.19,2.49,2.49,0,0,1-.19-1.32V39.91a29,29,0,0,0-.85-7.3,52.25,52.25,0,0,0-1.6-5.23A10,10,0,0,1,45.44,26q-0.14-.66.89-0.94l9.14-2.45a4.51,4.51,0,0,1,1.32-.28q1,0,2,1.74a24,24,0,0,1,1.79,4.76A5.5,5.5,0,0,0,61,28.23a1.62,1.62,0,0,1,.47-0.47,24,24,0,0,1,4.9-4.19,10.2,10.2,0,0,1,5.37-1.37,10.07,10.07,0,0,1,3.67.66A6.68,6.68,0,0,1,78.18,24.74Z" transform="translate(-3.28 -2.14)"/><path d="M116.91,66.76a2.5,2.5,0,0,1,.28,1.13,0.78,0.78,0,0,1-.75.66l-8.76,2.92a4.32,4.32,0,0,1-1.41.38,1.76,1.76,0,0,1-1.46-1.18,31.45,31.45,0,0,1-1.55-3.91,19.2,19.2,0,0,1-5.51,3.72,15.67,15.67,0,0,1-6.17,1.18q-7.07,0-11.12-3.91T76.39,57.06a15,15,0,0,1,2.07-8.29,14.27,14.27,0,0,1,6-5.09,26.6,26.6,0,0,1,7.07-2.26,52.13,52.13,0,0,1,8.86-.66h0.75V38a5.52,5.52,0,0,0-1.08-3.86Q99,33,95.33,33a19.16,19.16,0,0,0-4.95.75,62.25,62.25,0,0,0-6.17,2.07,1.84,1.84,0,0,1-1.08.19,1.18,1.18,0,0,1-.71-0.85l-2.64-7.63q-0.47-1.13,0-1.51a7.23,7.23,0,0,1,1.74-.94,30,30,0,0,1,7.4-2.21,48.46,48.46,0,0,1,8.24-.71,23.3,23.3,0,0,1,11,2.36A11.48,11.48,0,0,1,114,31.71a10.06,10.06,0,0,1,.57,2.69q0.09,1.37.09,3.35V56a23.58,23.58,0,0,0,.66,6.31A37,37,0,0,0,116.91,66.76ZM101.17,49.62h-0.85q-5.94,0-8.43,1.74a5.77,5.77,0,0,0-2.5,5A5.83,5.83,0,0,0,91,60.64a5,5,0,0,0,3.72,1.6q3.39,0,6.5-3.3V49.62Z" transform="translate(-3.28 -2.14)"/><path d="M168.54,45.47a42.17,42.17,0,0,1-1.27,11.16A22.28,22.28,0,0,1,163,64.88a20.19,20.19,0,0,1-6.5,5.23,17.66,17.66,0,0,1-8,1.84,11.71,11.71,0,0,1-4.76-.89,18.92,18.92,0,0,1-4.38-2.87,11.59,11.59,0,0,1-1.6,2.83,1.81,1.81,0,0,1-1.32.57,2,2,0,0,1-.47,0l-0.75-.14-9.33-1.51q-1.41-.28-0.75-1.88,0.47-1.13.8-2.12a18.16,18.16,0,0,0,.57-2.17q0.23-1.18.38-2.59t0.14-3.3v-52a3.78,3.78,0,0,1,.14-1.27A1.62,1.62,0,0,1,128.31,4l11.4-1.79a2.2,2.2,0,0,1,1.41,0,1.8,1.8,0,0,1,.38,1.46V25.59a18.54,18.54,0,0,1,10.18-3.39q8.38,0,12.62,6.22T168.54,45.47Zm-14,.66q0-7.07-1.84-10.46t-4.76-3.39a7.91,7.91,0,0,0-2.87.57,16.49,16.49,0,0,0-3.53,2.07V60.07a8.23,8.23,0,0,0,4.62,1.51q3.67,0,6-4T154.5,46.13Z" transform="translate(-3.28 -2.14)"/><path d="M214.51,66.76a2.5,2.5,0,0,1,.28,1.13,0.78,0.78,0,0,1-.75.66l-8.76,2.92a4.32,4.32,0,0,1-1.41.38,1.76,1.76,0,0,1-1.46-1.18,31.45,31.45,0,0,1-1.55-3.91,19.2,19.2,0,0,1-5.51,3.72,15.67,15.67,0,0,1-6.17,1.18q-7.07,0-11.12-3.91T174,57.06a15,15,0,0,1,2.07-8.29,14.27,14.27,0,0,1,6-5.09,26.6,26.6,0,0,1,7.07-2.26,52.13,52.13,0,0,1,8.86-.66h0.75V38a5.52,5.52,0,0,0-1.08-3.86Q196.61,33,192.94,33a19.16,19.16,0,0,0-4.95.75,62.25,62.25,0,0,0-6.17,2.07,1.84,1.84,0,0,1-1.08.19A1.18,1.18,0,0,1,180,35.2l-2.64-7.63q-0.47-1.13,0-1.51a7.23,7.23,0,0,1,1.74-.94,30,30,0,0,1,7.4-2.21,48.46,48.46,0,0,1,8.24-.71,23.3,23.3,0,0,1,11,2.36,11.48,11.48,0,0,1,5.84,7.16,10.06,10.06,0,0,1,.57,2.69q0.09,1.37.09,3.35V56a23.58,23.58,0,0,0,.66,6.31A37,37,0,0,0,214.51,66.76ZM198.78,49.62h-0.85q-5.94,0-8.43,1.74a5.77,5.77,0,0,0-2.5,5,5.83,5.83,0,0,0,1.55,4.24,5,5,0,0,0,3.72,1.6q3.39,0,6.5-3.3V49.62Z" transform="translate(-3.28 -2.14)"/><path d="M308.16,47.17a33.14,33.14,0,0,1-1.46,10.13,22.32,22.32,0,0,1-4.24,7.82,19,19,0,0,1-6.78,5,22.08,22.08,0,0,1-9.09,1.79q-10.55,0-16.21-6.69T264.73,47a33.44,33.44,0,0,1,1.46-10.22,21.94,21.94,0,0,1,4.29-7.82,18.79,18.79,0,0,1,6.93-5,23.52,23.52,0,0,1,9.28-1.74,22.84,22.84,0,0,1,9.19,1.74,18.13,18.13,0,0,1,6.74,5,22.16,22.16,0,0,1,4.14,7.87A35.37,35.37,0,0,1,308.16,47.17Zm-14.7-.09q0-8-1.7-11.21a5.59,5.59,0,0,0-5.28-3.2,5.69,5.69,0,0,0-5.32,3.2q-1.74,3.2-1.74,11.31t1.74,11.16a5.7,5.7,0,0,0,5.32,3.16,5.59,5.59,0,0,0,5.28-3.2Q293.46,55.08,293.46,47.07Z" transform="translate(-3.28 -2.14)"/><path d="M357.48,70.11a1.87,1.87,0,0,1-1.18.24H344.72a2.08,2.08,0,0,1-1.27-.24,2.08,2.08,0,0,1-.24-1.27V39.06q0-6.22-4.33-6.22a8.31,8.31,0,0,0-3.39.71,17.13,17.13,0,0,0-3.77,2.5V68.93a2.24,2.24,0,0,1-.19,1.18,2.07,2.07,0,0,1-1.32.24H318.71a1.84,1.84,0,0,1-1.23-.24,2.22,2.22,0,0,1-.19-1.18V37.56a30,30,0,0,0-.57-6.22,28.11,28.11,0,0,0-1.32-4.52q-0.66-1.51.66-1.88l9.52-2.73a4.61,4.61,0,0,1,1.6-.24,2,2,0,0,1,1.32,1,19.29,19.29,0,0,1,1,1.84,17,17,0,0,1,1,2.87A22.28,22.28,0,0,1,337,23.47a19.08,19.08,0,0,1,7-1.27q7.16,0,10.41,3.86t3.25,11.49V68.84A2.09,2.09,0,0,1,357.48,70.11Z" transform="translate(-3.28 -2.14)"/><path class="cls-1" d="M236,87.22c-16.86,13.73-41.31,21-62.36,21-29.5,0-56.07-12-76.17-32.06-1.58-1.57-.17-3.72,1.73-2.5A142.43,142.43,0,0,0,175.42,96a139.48,139.48,0,0,0,58.14-13.13C236.41,81.54,238.8,84.94,236,87.22Z" transform="translate(-3.28 -2.14)"/><path class="cls-2" d="M241.56,78.38c-1.61-3-10.64-1.44-14.7-.72-1.23.22-1.42-1.37-.31-2.52,7.21-7.48,19-5.32,20.38-2.82s-0.36,20-7.11,28.37c-1,1.28-2,.6-1.57-1.1C239.77,94,243.17,81.43,241.56,78.38Z" transform="translate(-3.28 -2.14)"/><path class="cls-3" d="M222.78,29.75v-6.9a1.7,1.7,0,0,1,1.75-1.75h30.92a1.72,1.72,0,0,1,1.78,1.74v5.92c0,1-.85,2.29-2.33,4.34L238.89,56c5.95-.14,12.24.75,17.64,3.79a3.16,3.16,0,0,1,1.64,2.69v7.36a1.65,1.65,0,0,1-2.28,1.58,35.61,35.61,0,0,0-32.67.06c-1.08.57-2.2-.58-2.2-1.6v-7a8.33,8.33,0,0,1,1.15-4.74l18.56-26.63H224.57A1.72,1.72,0,0,1,222.78,29.75Z" transform="translate(-3.28 -2.14)"/></svg>